<svg xmlns="http://www.w3.org/2000/svg" viewBox="0 0 512 512" width="512" height="512">
  <defs>
    <linearGradient id="bg" x1="0%" y1="0%" x2="100%" y2="100%">
      <stop offset="0%" stop-color="#0F766E"/>
      <stop offset="100%" stop-color="#042F2E"/>
    </linearGradient>
    <linearGradient id="gold" x1="0%" y1="0%" x2="100%" y2="100%">
      <stop offset="0%" stop-color="#FDE68A"/>
      <stop offset="100%" stop-color="#D97706"/>
    </linearGradient>
  </defs>
  <rect width="512" height="512" fill="url(#bg)"/>
  <path d="M256 112 C176 112 112 176 112 256 C112 336 176 400 256 400 C303 400 344 378 370 344 C300 347 244 291 244 222 C244 176 266 135 302 112 C287 108 271 112 256 112 Z" fill="url(#gold)" opacity="0.95"/>
  <polygon points="360,170 375,200 408,205 384,228 390,260 360,245 330,260 336,228 312,205 345,200" fill="url(#gold)"/>
</svg>
